<svg xmlns="http://www.w3.org/2000/svg" width="20" height="20" fill="currentColor" class="catIcon" viewBox="0 0 16 16">
    <path
    d="M212.384 23.216 C 210.872 24.758,209.900 29.600,211.102 29.600 C 211.269 29.600,211.630 30.095,211.906 30.700 C 212.182 31.305,213.030 32.520,213.791 33.400 C 214.551 34.280,215.584 35.494,216.087 36.097 C 216.589 36.700,217.197 37.424,217.437 37.705 C 218.846 39.355,219.138 40.814,218.000 40.516 C 217.560 40.401,217.200 40.176,217.200 40.017 C 217.200 39.857,216.435 39.498,215.500 39.219 C 214.565 38.940,213.699 38.551,213.576 38.355 C 213.453 38.159,211.968 37.778,210.276 37.509 C 208.584 37.240,207.200 36.880,207.200 36.710 C 207.200 36.539,206.120 36.400,204.800 36.400 C 203.467 36.400,202.400 36.578,202.400 36.800 C 202.400 37.020,201.956 37.200,201.414 37.200 C 199.344 37.200,197.825 39.410,197.661 42.660 L 197.515 45.558 199.603 47.765 C 200.751 48.980,202.210 50.203,202.845 50.484 C 203.480 50.765,204.000 51.131,204.000 51.298 C 204.000 51.464,204.191 51.600,204.425 51.600 C 204.659 51.600,205.829 52.079,207.025 52.665 C 209.792 54.020,209.880 54.800,207.267 54.800 C 204.976 54.800,200.800 55.583,200.800 56.012 C 200.800 56.178,200.395 56.415,199.900 56.540 C 198.607 56.866,196.918 58.203,195.200 60.261 C 194.288 61.354,194.379 66.036,195.330 66.987 C 197.119 68.776,201.155 69.859,202.220 68.834 C 203.828 67.288,235.260 67.324,238.300 68.876 C 238.980 69.223,239.445 69.221,240.200 68.868 C 240.750 68.610,241.642 68.194,242.182 67.942 C 243.400 67.374,244.400 65.344,244.400 63.440 C 244.400 62.648,244.580 62.000,244.800 62.000 C 245.041 62.000,245.200 60.333,245.200 57.800 C 245.200 55.490,245.046 53.600,244.857 53.600 C 244.669 53.600,244.395 52.315,244.249 50.744 C 244.103 49.172,243.728 47.327,243.415 46.644 C 243.103 45.960,242.649 44.635,242.408 43.700 C 242.167 42.765,241.825 42.000,241.648 42.000 C 241.471 42.000,241.111 41.280,240.847 40.400 C 240.584 39.520,240.215 38.800,240.027 38.800 C 239.840 38.800,239.563 38.306,239.411 37.703 C 239.260 37.100,238.889 36.335,238.587 36.003 C 238.284 35.671,237.669 34.995,237.219 34.500 C 236.768 34.005,236.400 33.455,236.400 33.277 C 236.400 32.867,229.968 26.400,229.560 26.400 C 229.394 26.400,228.986 26.129,228.655 25.798 C 226.515 23.657,221.041 21.600,217.488 21.600 L 213.968 21.600 212.384 23.216 M209.500 76.268 C 208.015 76.361,206.800 76.608,206.800 76.818 C 206.800 77.028,206.109 77.200,205.264 77.200 C 203.087 77.200,197.077 78.032,196.600 78.399 C 196.380 78.568,194.850 78.940,193.200 79.226 C 191.550 79.511,190.110 79.862,190.000 80.005 C 189.890 80.148,188.675 80.500,187.300 80.787 C 185.925 81.074,184.800 81.436,184.800 81.591 C 184.800 81.746,183.810 82.094,182.600 82.365 C 181.390 82.636,180.400 82.992,180.400 83.156 C 180.400 83.321,179.500 83.700,178.400 84.000 C 177.300 84.300,176.400 84.664,176.400 84.809 C 176.400 84.954,175.680 85.289,174.800 85.553 C 173.920 85.816,173.200 86.176,173.200 86.353 C 173.200 86.529,172.480 86.889,171.600 87.153 C 170.720 87.416,170.000 87.776,170.000 87.953 C 170.000 88.129,169.280 88.489,168.400 88.753 C 167.520 89.016,166.800 89.371,166.800 89.541 C 166.800 89.712,166.170 90.098,165.400 90.400 C 164.630 90.702,164.000 91.096,164.000 91.275 C 164.000 91.454,163.792 91.600,163.538 91.600 C 163.284 91.600,162.519 92.018,161.838 92.529 C 161.157 93.041,160.285 93.575,159.900 93.717 C 159.515 93.859,159.200 94.161,159.200 94.387 C 159.200 94.614,158.932 94.800,158.603 94.800 C 158.275 94.800,157.782 95.160,157.507 95.600 C 157.232 96.040,156.826 96.402,156.604 96.405 C 156.141 96.412,154.315 97.778,153.002 99.100 C 152.510 99.595,151.972 100.000,151.806 100.000 C 151.431 100.000,139.600 111.783,139.600 112.157 C 139.600 112.305,139.060 112.955,138.400 113.600 C 137.740 114.245,137.200 114.949,137.200 115.164 C 137.200 115.379,136.869 115.790,136.463 116.077 C 136.058 116.365,135.494 117.039,135.209 117.575 C 134.676 118.580,134.262 119.143,133.160 120.369 C 132.808 120.760,132.269 121.647,131.963 122.340 C 131.656 123.033,131.259 123.600,131.082 123.600 C 130.904 123.600,130.570 124.140,130.340 124.800 C 130.110 125.460,129.781 126.000,129.609 126.000 C 129.438 126.000,129.061 126.585,128.772 127.300 C 128.483 128.015,128.025 128.736,127.755 128.902 C 127.484 129.069,127.144 129.744,126.999 130.402 C 126.855 131.061,126.588 131.600,126.407 131.600 C 126.226 131.600,125.890 132.140,125.660 132.800 C 125.430 133.460,125.052 134.000,124.821 134.000 C 124.589 134.000,124.400 134.243,124.400 134.540 C 124.400 134.838,123.971 135.888,123.446 136.875 C 122.922 137.861,122.367 139.238,122.214 139.934 C 122.062 140.630,121.778 141.200,121.584 141.200 C 121.391 141.200,121.009 141.965,120.736 142.900 C 120.462 143.835,120.130 144.690,119.997 144.800 C 119.864 144.910,119.519 145.630,119.230 146.400 C 118.942 147.170,118.456 148.371,118.149 149.068 C 117.843 149.766,117.482 150.891,117.346 151.568 C 117.211 152.246,116.967 152.800,116.805 152.800 C 116.642 152.800,116.280 153.880,116.000 155.200 C 115.720 156.520,115.364 157.600,115.209 157.600 C 115.054 157.600,114.699 158.635,114.419 159.900 C 114.140 161.165,113.768 162.380,113.593 162.600 C 113.418 162.820,113.052 164.170,112.780 165.600 C 112.508 167.030,112.139 168.389,111.960 168.621 C 111.780 168.852,111.416 170.382,111.150 172.021 C 110.884 173.659,110.533 175.090,110.370 175.200 C 110.208 175.311,109.839 177.156,109.551 179.300 C 109.264 181.445,108.908 183.200,108.762 183.200 C 108.615 183.200,108.272 185.315,107.998 187.900 C 107.725 190.485,107.361 192.780,107.189 193.000 C 107.017 193.220,106.662 196.190,106.399 199.600 C 106.137 203.010,105.771 206.160,105.586 206.600 C 105.204 207.506,104.397 223.883,104.399 230.676 C 104.399 233.231,104.228 235.259,104.000 235.400 C 102.693 236.208,104.170 238.377,106.785 239.492 C 107.547 239.816,109.527 241.492,111.185 243.215 C 115.029 247.209,115.363 247.617,116.037 249.140 C 116.344 249.833,116.710 250.400,116.849 250.400 C 116.989 250.400,117.327 250.940,117.600 251.600 C 117.873 252.260,118.227 252.800,118.385 252.800 C 118.544 252.800,118.889 253.520,119.153 254.400 C 119.416 255.280,119.776 256.000,119.952 256.000 C 120.128 256.000,120.510 256.990,120.800 258.200 C 121.090 259.410,121.472 260.400,121.648 260.400 C 121.824 260.400,122.192 261.480,122.464 262.800 C 122.737 264.120,123.084 265.200,123.235 265.200 C 123.386 265.200,123.734 266.415,124.007 267.900 C 124.281 269.385,124.641 270.780,124.807 271.000 C 125.170 271.481,126.000 277.509,126.000 279.664 C 126.000 280.509,126.180 281.200,126.400 281.200 C 126.652 281.200,126.800 283.867,126.800 288.400 C 126.800 292.360,126.654 295.600,126.474 295.600 C 126.295 295.600,125.917 297.760,125.633 300.400 C 125.349 303.040,124.979 305.200,124.810 305.200 C 124.642 305.200,124.293 306.275,124.034 307.589 C 123.776 308.903,123.303 310.478,122.984 311.089 C 122.665 311.700,122.293 312.785,122.158 313.500 C 122.022 314.215,121.780 314.800,121.620 314.800 C 121.459 314.800,121.090 315.520,120.800 316.400 C 120.510 317.280,120.157 318.000,120.016 318.000 C 119.876 318.000,119.533 318.630,119.254 319.400 C 118.976 320.170,118.597 320.800,118.413 320.800 C 118.229 320.800,117.890 321.340,117.660 322.000 C 117.430 322.660,117.052 323.200,116.821 323.200 C 116.589 323.200,116.400 323.425,116.400 323.700 C 116.399 324.158,115.419 325.531,113.829 327.300 C 113.483 327.685,113.196 328.135,113.191 328.300 C 113.176 328.785,104.551 337.200,104.069 337.200 C 103.826 337.200,103.435 337.560,103.200 338.000 C 102.965 338.440,102.503 338.800,102.173 338.800 C 101.844 338.800,101.478 339.054,101.359 339.363 C 101.240 339.673,100.615 340.145,99.971 340.412 C 99.327 340.679,98.800 341.038,98.800 341.209 C 98.800 341.381,98.260 341.710,97.600 341.940 C 96.940 342.170,96.400 342.519,96.400 342.716 C 96.400 342.912,95.680 343.289,94.800 343.553 C 93.920 343.816,93.200 344.205,93.200 344.416 C 93.200 344.627,92.957 344.800,92.660 344.800 C 92.362 344.800,91.312 345.229,90.325 345.754 C 89.339 346.278,87.962 346.833,87.266 346.986 C 86.570 347.138,86.000 347.405,86.000 347.577 C 86.000 347.750,84.920 348.120,83.600 348.400 C 82.280 348.680,81.200 349.029,81.200 349.175 C 81.200 349.321,80.075 349.667,78.700 349.944 C 77.325 350.221,75.660 350.607,75.000 350.802 C 71.960 351.700,67.152 352.071,54.376 352.393 C 41.026 352.729,39.715 352.862,36.600 354.191 C 35.940 354.472,35.220 354.770,35.000 354.851 C 33.660 355.349,31.550 357.177,31.134 358.200 C 30.865 358.860,30.455 359.529,30.223 359.687 C 29.632 360.087,29.660 369.705,30.254 370.439 C 30.503 370.748,30.837 371.602,30.994 372.339 C 31.324 373.882,36.287 383.734,36.834 383.933 C 37.035 384.007,37.200 384.247,37.200 384.468 C 37.200 384.689,37.785 385.704,38.500 386.725 C 39.215 387.746,39.929 388.765,40.086 388.991 C 40.243 389.216,40.918 390.054,41.586 390.853 C 42.254 391.652,42.800 392.417,42.800 392.553 C 42.800 393.394,59.111 409.500,60.403 409.933 C 60.621 410.007,61.475 410.680,62.300 411.430 C 64.693 413.605,65.181 413.999,65.500 414.016 C 65.665 414.025,66.423 414.565,67.185 415.216 C 67.947 415.867,68.802 416.400,69.085 416.400 C 69.368 416.400,69.600 416.586,69.600 416.813 C 69.600 417.039,69.915 417.341,70.300 417.483 C 70.685 417.625,71.557 418.159,72.238 418.671 C 72.919 419.182,73.664 419.600,73.895 419.600 C 74.126 419.600,74.412 419.853,74.530 420.162 C 74.649 420.472,75.298 420.846,75.973 420.994 C 76.648 421.142,77.200 421.439,77.200 421.653 C 77.200 421.867,77.740 422.230,78.400 422.460 C 79.060 422.690,79.600 423.029,79.600 423.213 C 79.600 423.397,80.230 423.776,81.000 424.054 C 81.770 424.333,82.400 424.676,82.400 424.816 C 82.400 424.957,83.111 425.306,83.979 425.593 C 84.848 425.880,85.645 426.342,85.752 426.619 C 85.859 426.897,86.498 427.246,87.173 427.394 C 87.848 427.542,88.400 427.800,88.400 427.968 C 88.400 428.135,89.120 428.510,90.000 428.800 C 90.880 429.090,91.600 429.440,91.600 429.577 C 91.600 429.713,92.410 430.065,93.400 430.357 C 94.390 430.649,95.200 431.034,95.200 431.212 C 95.200 431.391,95.785 431.660,96.500 431.811 C 97.215 431.963,98.340 432.407,99.000 432.800 C 99.660 433.193,100.785 433.637,101.500 433.789 C 102.215 433.940,102.800 434.190,102.800 434.344 C 102.800 434.499,103.655 434.871,104.700 435.171 C 105.745 435.471,106.780 435.852,107.000 436.017 C 107.220 436.182,108.210 436.547,109.200 436.829 C 110.190 437.110,111.180 437.471,111.400 437.631 C 111.620 437.791,112.610 438.130,113.600 438.384 C 114.590 438.639,115.940 439.091,116.600 439.390 C 117.260 439.689,118.520 440.062,119.400 440.219 C 120.280 440.376,121.180 440.644,121.400 440.815 C 121.620 440.985,122.970 441.351,124.400 441.627 C 125.830 441.903,127.098 442.275,127.218 442.454 C 127.337 442.634,128.822 442.987,130.518 443.239 C 132.213 443.491,133.600 443.833,133.600 443.998 C 133.600 444.164,135.310 444.534,137.400 444.821 C 139.490 445.108,141.200 445.490,141.200 445.671 C 141.200 445.852,141.822 446.000,142.581 446.000 C 144.652 446.000,145.883 446.716,146.156 448.078 C 146.286 448.730,146.649 449.834,146.962 450.532 C 147.275 451.229,147.750 452.520,148.018 453.400 C 148.285 454.280,148.635 455.180,148.794 455.400 C 148.954 455.620,149.297 456.672,149.557 457.737 C 149.817 458.803,150.280 460.063,150.586 460.537 C 150.891 461.012,151.264 462.075,151.415 462.900 C 151.566 463.725,151.820 464.400,151.981 464.400 C 152.141 464.400,152.494 465.390,152.765 466.600 C 153.036 467.810,153.402 468.800,153.579 468.800 C 153.756 468.800,154.140 469.880,154.433 471.200 C 154.725 472.520,155.087 473.600,155.235 473.600 C 155.384 473.600,155.720 474.453,155.982 475.495 C 156.245 476.537,156.593 477.572,156.758 477.795 C 156.922 478.018,157.306 479.010,157.611 480.000 C 157.917 480.990,158.286 481.890,158.433 482.000 C 158.580 482.110,158.824 482.772,158.975 483.472 C 159.399 485.426,158.669 485.600,150.059 485.600 C 141.864 485.600,141.200 485.693,141.200 486.843 C 141.200 487.259,141.020 487.600,140.800 487.600 C 140.574 487.600,140.400 488.733,140.400 490.200 C 140.400 491.667,140.574 492.800,140.800 492.800 C 141.020 492.800,141.200 493.038,141.200 493.328 C 141.200 495.410,144.522 496.358,151.900 496.383 C 154.815 496.392,157.200 496.540,157.200 496.711 C 157.200 496.883,158.746 497.233,160.635 497.491 C 162.524 497.749,164.279 498.125,164.535 498.328 C 164.791 498.530,165.715 498.926,166.589 499.208 C 167.463 499.490,168.421 499.964,168.718 500.260 C 169.014 500.557,169.505 500.800,169.809 500.800 C 170.112 500.800,170.504 501.025,170.680 501.301 C 170.856 501.576,171.535 502.071,172.188 502.401 C 173.501 503.063,178.000 507.380,178.000 507.977 C 178.000 508.185,178.315 508.590,178.700 508.877 C 179.085 509.165,179.670 509.940,179.999 510.600 C 180.329 511.260,180.824 511.944,181.099 512.120 C 181.375 512.296,181.600 512.641,181.600 512.886 C 181.600 513.132,181.869 513.618,182.198 513.966 C 182.527 514.315,183.263 515.185,183.833 515.900 C 184.404 516.615,185.048 517.200,185.264 517.200 C 185.480 517.200,185.947 517.490,186.301 517.844 C 187.042 518.585,190.856 518.432,191.116 517.651 C 191.199 517.403,191.489 517.200,191.761 517.200 C 193.875 517.200,195.242 510.785,193.499 509.042 C 193.115 508.657,192.800 508.121,192.800 507.849 C 192.800 506.935,189.578 502.812,186.085 499.256 C 184.702 497.848,183.677 496.590,183.807 496.460 C 183.937 496.330,184.201 496.478,184.393 496.789 C 184.850 497.528,203.850 497.681,204.314 496.950 C 204.471 496.703,205.230 496.371,206.000 496.213 C 210.100 495.370,211.849 491.957,210.332 487.761 C 209.570 485.656,209.149 485.600,194.054 485.600 C 177.997 485.600,177.343 485.501,174.310 482.614 C 173.270 481.625,172.303 480.317,172.162 479.708 C 172.021 479.098,171.688 478.240,171.422 477.800 C 171.157 477.360,170.705 476.145,170.418 475.100 C 170.131 474.055,169.768 473.200,169.612 473.200 C 169.455 473.200,169.106 472.210,168.835 471.000 C 168.564 469.790,168.206 468.800,168.039 468.800 C 167.872 468.800,167.535 468.035,167.290 467.100 C 166.729 464.955,165.110 460.476,164.479 459.326 C 164.216 458.846,164.000 458.243,164.000 457.987 C 164.000 457.731,163.746 456.954,163.434 456.260 C 163.123 455.567,162.650 454.280,162.382 453.400 C 162.115 452.520,161.760 451.620,161.594 451.400 C 160.200 449.552,161.443 447.255,163.020 448.764 C 164.629 450.303,219.346 450.332,220.400 448.795 C 220.510 448.634,222.314 448.376,224.410 448.221 L 228.220 447.939 228.963 450.069 C 229.372 451.241,229.933 452.740,230.210 453.400 C 230.487 454.060,230.979 455.410,231.303 456.400 C 232.436 459.858,234.866 466.610,235.421 467.840 C 237.341 472.096,236.906 472.307,226.100 472.360 C 219.184 472.394,218.000 472.488,218.000 473.000 C 218.000 473.330,217.820 473.600,217.600 473.600 C 216.900 473.600,217.169 476.484,218.036 478.274 C 218.495 479.223,219.022 480.000,219.207 480.000 C 219.392 480.000,219.809 480.266,220.135 480.592 C 220.460 480.917,221.598 481.388,222.663 481.639 C 223.728 481.889,224.913 482.253,225.295 482.447 C 225.677 482.641,227.567 482.803,229.495 482.807 C 233.720 482.815,240.473 483.486,240.779 483.928 C 240.901 484.103,242.035 484.490,243.300 484.787 C 244.565 485.085,245.600 485.443,245.600 485.584 C 245.600 485.724,246.248 486.074,247.041 486.360 C 248.737 486.973,248.948 487.140,252.600 490.743 C 255.614 493.717,255.682 493.797,257.232 496.200 C 259.474 499.676,260.400 501.192,260.400 501.388 C 260.400 501.885,263.030 504.042,263.903 504.262 C 266.729 504.971,271.600 503.018,271.600 501.176 C 271.600 500.775,271.780 500.336,272.000 500.200 C 272.472 499.909,272.545 497.600,272.083 497.600 C 271.909 497.600,271.549 496.790,271.284 495.800 C 271.020 494.810,270.622 494.000,270.402 494.000 C 270.181 494.000,270.000 493.775,270.000 493.500 C 269.999 493.225,269.594 492.525,269.100 491.944 C 268.605 491.364,267.570 490.118,266.800 489.177 C 266.030 488.235,264.545 486.593,263.500 485.527 C 261.239 483.221,261.099 482.618,262.900 482.947 C 268.399 483.951,285.200 483.532,285.200 482.391 C 285.200 482.206,285.605 481.927,286.100 481.773 C 288.572 481.001,289.769 477.761,289.033 473.834 L 288.770 472.431 270.779 472.316 L 252.789 472.200 251.815 471.000 C 251.280 470.340,250.725 469.260,250.582 468.600 C 250.438 467.940,250.101 467.040,249.831 466.600 C 249.561 466.160,249.098 464.900,248.804 463.800 C 248.509 462.700,248.027 461.445,247.734 461.011 C 247.440 460.577,247.199 459.947,247.198 459.611 C 247.196 459.275,246.950 458.531,246.651 457.958 C 246.352 457.385,245.885 455.990,245.614 454.858 C 245.342 453.726,244.978 452.800,244.805 452.800 C 244.631 452.800,244.363 452.125,244.208 451.300 C 244.054 450.475,243.605 449.080,243.211 448.200 C 241.765 444.968,241.772 444.925,243.788 444.623 C 244.785 444.473,245.600 444.215,245.600 444.049 C 245.600 443.883,246.815 443.510,248.300 443.221 C 249.785 442.932,251.180 442.567,251.400 442.410 C 251.620 442.253,252.655 441.893,253.700 441.610 C 254.745 441.327,255.600 440.968,255.600 440.812 C 255.600 440.655,256.590 440.306,257.800 440.035 C 259.010 439.764,260.000 439.398,260.000 439.221 C 260.000 439.045,260.543 438.791,261.206 438.659 C 261.870 438.526,263.372 437.964,264.545 437.409 C 265.718 436.854,266.885 436.400,267.139 436.400 C 267.392 436.400,267.600 436.243,267.600 436.050 C 267.600 435.858,268.097 435.601,268.705 435.479 C 269.313 435.357,270.228 434.896,270.738 434.453 C 271.248 434.011,272.191 433.534,272.833 433.393 C 273.475 433.252,274.000 432.988,274.000 432.807 C 274.000 432.626,274.540 432.290,275.200 432.060 C 275.860 431.830,276.400 431.488,276.400 431.301 C 276.400 431.114,277.030 430.733,277.800 430.454 C 278.570 430.176,279.200 429.780,279.200 429.574 C 279.200 429.368,279.396 429.200,279.635 429.200 C 280.179 429.200,283.688 426.775,284.120 426.100 C 284.296 425.825,284.706 425.600,285.032 425.600 C 285.358 425.600,285.729 425.330,285.855 425.000 C 285.982 424.670,286.296 424.400,286.554 424.400 C 287.033 424.400,288.665 423.086,291.271 420.602 C 292.079 419.831,292.873 419.200,293.035 419.200 C 293.350 419.200,302.391 409.994,303.913 408.123 C 304.416 407.505,305.442 406.280,306.194 405.400 C 306.947 404.520,307.796 403.350,308.081 402.800 C 308.366 402.250,308.915 401.565,309.300 401.277 C 309.685 400.990,310.000 400.495,310.000 400.177 C 310.000 399.860,310.135 399.597,310.300 399.592 C 310.465 399.588,311.140 398.673,311.800 397.559 C 312.460 396.445,313.191 395.323,313.425 395.067 C 313.658 394.810,314.107 394.015,314.422 393.300 C 314.737 392.585,315.124 392.000,315.282 392.000 C 315.439 392.000,315.784 391.280,316.047 390.400 C 316.311 389.520,316.662 388.800,316.828 388.800 C 317.199 388.800,320.641 381.814,321.015 380.300 C 321.164 379.695,321.424 379.200,321.591 379.200 C 321.759 379.200,322.123 378.390,322.400 377.400 C 322.677 376.410,323.032 375.600,323.188 375.600 C 323.344 375.600,323.710 374.610,324.000 373.400 C 324.290 372.190,324.654 371.200,324.809 371.200 C 324.964 371.200,325.320 370.120,325.600 368.800 C 325.880 367.480,326.236 366.400,326.391 366.400 C 326.546 366.400,326.901 365.365,327.181 364.100 C 327.460 362.835,327.833 361.620,328.009 361.400 C 328.186 361.180,328.541 359.830,328.800 358.400 C 329.059 356.970,329.414 355.620,329.589 355.400 C 329.765 355.180,330.130 353.650,330.400 352.000 C 330.670 350.350,331.043 348.811,331.228 348.581 C 331.413 348.350,331.786 346.460,332.057 344.381 C 332.328 342.301,332.679 340.510,332.836 340.400 C 332.993 340.290,333.346 338.040,333.620 335.400 C 333.893 332.760,334.262 330.412,334.439 330.183 C 334.616 329.954,334.982 326.174,335.252 321.783 C 335.540 317.113,335.922 313.682,336.172 313.515 C 336.798 313.097,336.764 266.463,336.137 265.157 C 335.878 264.617,335.473 259.930,335.209 254.404 C 334.950 249.017,334.593 244.427,334.414 244.204 C 334.235 243.982,333.860 240.335,333.580 236.100 C 333.300 231.865,332.952 228.400,332.808 228.400 C 332.663 228.400,332.311 225.430,332.024 221.800 C 331.737 218.170,331.382 215.200,331.235 215.200 C 331.088 215.200,330.734 212.726,330.449 209.702 C 330.164 206.678,329.795 204.113,329.628 204.002 C 329.462 203.891,329.098 201.820,328.818 199.400 C 328.539 196.980,328.178 194.820,328.017 194.600 C 327.856 194.380,327.495 192.580,327.214 190.600 C 326.934 188.620,326.570 186.820,326.405 186.600 C 326.241 186.380,325.880 184.715,325.604 182.900 C 325.328 181.085,324.981 179.600,324.833 179.600 C 324.684 179.600,324.346 178.338,324.082 176.795 C 323.817 175.253,323.436 173.678,323.235 173.295 C 323.034 172.913,322.653 171.520,322.390 170.200 C 322.126 168.880,321.775 167.620,321.608 167.400 C 321.441 167.180,321.078 166.010,320.800 164.800 C 320.522 163.590,320.159 162.420,319.992 162.200 C 319.825 161.980,319.460 160.765,319.181 159.500 C 318.901 158.235,318.550 157.200,318.400 157.200 C 318.250 157.200,317.890 156.210,317.600 155.000 C 317.310 153.790,316.941 152.800,316.781 152.800 C 316.620 152.800,316.379 152.212,316.244 151.493 C 316.109 150.774,315.663 149.559,315.253 148.793 C 314.842 148.027,314.378 146.815,314.222 146.100 C 314.065 145.385,313.791 144.800,313.613 144.800 C 313.435 144.800,313.172 144.176,313.029 143.413 C 312.886 142.650,312.529 141.787,312.237 141.494 C 311.945 141.202,311.578 140.521,311.423 139.981 C 311.268 139.442,310.209 137.144,309.070 134.875 C 306.250 129.256,305.916 128.631,305.616 128.400 C 305.472 128.290,305.118 127.615,304.829 126.900 C 304.540 126.185,304.181 125.600,304.032 125.600 C 303.883 125.600,303.533 124.970,303.254 124.200 C 302.976 123.430,302.602 122.800,302.423 122.800 C 302.244 122.800,301.873 122.260,301.600 121.600 C 301.327 120.940,300.967 120.400,300.800 120.400 C 300.633 120.400,300.273 119.860,300.000 119.200 C 299.727 118.540,299.357 118.000,299.178 118.000 C 299.000 118.000,298.740 117.641,298.601 117.202 C 298.462 116.764,298.134 116.174,297.874 115.892 C 296.910 114.851,294.800 112.039,294.800 111.797 C 294.800 111.659,294.170 110.952,293.400 110.226 C 292.630 109.500,292.000 108.763,292.000 108.590 C 292.000 108.261,281.288 97.688,279.324 96.079 C 278.706 95.572,277.660 94.717,277.000 94.179 C 276.340 93.641,275.575 93.201,275.300 93.200 C 275.025 93.200,274.800 93.014,274.800 92.787 C 274.800 92.561,274.485 92.259,274.100 92.117 C 273.715 91.975,272.843 91.441,272.162 90.929 C 271.481 90.418,270.716 90.000,270.462 90.000 C 270.208 90.000,270.000 89.811,270.000 89.579 C 270.000 89.348,269.460 88.970,268.800 88.740 C 268.140 88.510,267.600 88.171,267.600 87.987 C 267.600 87.803,266.970 87.424,266.200 87.146 C 265.430 86.867,264.800 86.524,264.800 86.384 C 264.800 86.243,264.080 85.890,263.200 85.600 C 262.320 85.310,261.600 84.941,261.600 84.780 C 261.600 84.620,260.790 84.249,259.800 83.957 C 258.810 83.665,258.000 83.303,258.000 83.153 C 258.000 83.003,257.100 82.664,256.000 82.400 C 254.900 82.136,254.000 81.783,254.000 81.615 C 254.000 81.447,252.920 81.080,251.600 80.800 C 250.280 80.520,249.200 80.161,249.200 80.002 C 249.200 79.843,247.805 79.478,246.100 79.191 C 244.395 78.903,242.901 78.520,242.780 78.339 C 242.658 78.158,240.678 77.794,238.380 77.530 C 236.081 77.266,234.088 76.885,233.951 76.684 C 233.692 76.303,214.228 75.972,209.500 76.268 M206.029 177.449 C 208.051 178.810,209.200 181.039,209.200 183.600 C 209.200 190.834,199.774 193.663,195.719 187.646 C 191.263 181.033,199.400 172.986,206.029 177.449 M283.000 176.902 C 290.033 180.385,287.652 190.763,279.798 190.856 C 273.606 190.930,270.053 183.556,274.075 178.976 C 276.479 176.238,280.005 175.418,283.000 176.902 M245.024 202.146 C 248.952 203.710,259.243 207.992,261.676 209.075 C 265.198 210.642,265.595 213.105,262.671 215.236 C 261.050 216.418,259.826 217.219,248.436 224.548 C 241.112 229.261,242.662 229.552,229.637 221.021 C 225.547 218.342,221.623 215.812,220.917 215.399 C 218.650 214.071,218.232 211.030,220.149 209.815 C 220.802 209.401,236.776 202.701,240.000 201.489 C 241.221 201.030,242.710 201.224,245.024 202.146 M97.423 247.351 C 96.658 248.094,95.755 248.808,95.416 248.938 C 95.077 249.069,94.800 249.346,94.800 249.556 C 94.800 249.765,94.035 250.736,93.100 251.712 C 90.168 254.774,88.966 256.190,88.691 256.907 C 88.545 257.288,88.261 257.600,88.061 257.600 C 87.861 257.600,87.479 258.127,87.212 258.771 C 86.945 259.415,86.473 260.040,86.163 260.159 C 85.854 260.278,85.600 260.644,85.600 260.973 C 85.600 261.303,85.240 261.765,84.800 262.000 C 84.360 262.235,84.000 262.614,84.000 262.841 C 84.000 263.068,83.550 263.843,83.000 264.564 C 82.450 265.286,82.000 266.084,82.000 266.338 C 82.000 266.592,81.830 266.800,81.622 266.800 C 81.243 266.800,80.570 267.864,79.409 270.300 C 79.068 271.015,78.656 271.600,78.492 271.600 C 78.329 271.600,77.936 272.185,77.620 272.900 C 77.303 273.615,76.896 274.380,76.715 274.600 C 75.768 275.749,74.014 278.665,74.007 279.100 C 74.003 279.375,73.854 279.600,73.675 279.600 C 73.496 279.600,73.102 280.230,72.800 281.000 C 72.498 281.770,72.141 282.400,72.007 282.400 C 71.873 282.400,71.148 283.615,70.396 285.100 C 69.643 286.585,68.913 287.890,68.773 288.000 C 68.633 288.110,67.907 289.460,67.159 291.000 C 66.412 292.540,65.690 293.890,65.556 294.000 C 65.422 294.110,65.071 294.875,64.776 295.700 C 64.481 296.525,64.124 297.200,63.984 297.200 C 63.843 297.200,63.490 297.920,63.200 298.800 C 62.910 299.680,62.550 300.400,62.400 300.400 C 62.250 300.400,61.890 301.120,61.600 302.000 C 61.310 302.880,60.950 303.600,60.800 303.600 C 60.650 303.600,60.290 304.320,60.000 305.200 C 59.710 306.080,59.341 306.800,59.180 306.800 C 59.020 306.800,58.649 307.610,58.357 308.600 C 58.065 309.590,57.713 310.400,57.576 310.400 C 57.439 310.400,57.111 311.120,56.847 312.000 C 56.584 312.880,56.224 313.600,56.048 313.600 C 55.872 313.600,55.490 314.590,55.200 315.800 C 54.910 317.010,54.542 318.000,54.384 318.000 C 54.225 318.000,53.891 318.810,53.642 319.800 C 53.392 320.790,53.040 321.600,52.858 321.600 C 52.676 321.600,52.297 322.635,52.015 323.900 C 51.734 325.165,51.362 326.291,51.188 326.401 C 51.014 326.512,50.637 327.772,50.349 329.201 C 50.062 330.631,49.679 331.905,49.499 332.033 C 47.878 333.182,49.079 341.101,51.036 342.179 C 51.456 342.411,51.909 342.749,52.043 342.931 C 52.856 344.039,72.046 343.953,72.793 342.838 C 72.907 342.667,74.080 342.334,75.400 342.097 C 78.084 341.616,81.003 340.703,83.400 339.595 C 84.280 339.188,85.495 338.733,86.100 338.584 C 86.705 338.435,87.200 338.153,87.200 337.957 C 87.200 337.760,87.472 337.600,87.805 337.600 C 88.361 337.600,89.922 336.878,90.400 336.400 C 90.510 336.290,91.230 335.876,92.000 335.480 C 94.934 333.971,95.600 333.545,95.600 333.178 C 95.600 332.970,95.825 332.798,96.100 332.795 C 97.541 332.779,108.379 321.941,108.395 320.500 C 108.398 320.225,108.584 320.000,108.810 320.000 C 109.035 320.000,109.391 319.550,109.600 319.000 C 109.809 318.450,110.131 318.000,110.315 318.000 C 110.500 318.000,110.898 317.370,111.200 316.600 C 111.502 315.830,111.888 315.200,112.059 315.200 C 112.229 315.200,112.584 314.480,112.847 313.600 C 113.111 312.720,113.446 312.000,113.591 312.000 C 113.736 312.000,114.104 311.089,114.407 309.975 C 114.710 308.861,115.087 307.870,115.243 307.773 C 115.400 307.677,115.753 306.293,116.028 304.699 C 116.303 303.104,116.672 301.610,116.848 301.378 C 118.202 299.596,118.173 275.363,116.816 274.400 C 116.661 274.290,116.316 272.856,116.049 271.212 C 115.782 269.569,115.413 268.129,115.230 268.012 C 115.046 267.896,114.666 266.765,114.385 265.500 C 114.103 264.235,113.755 263.200,113.612 263.200 C 113.469 263.200,113.121 262.300,112.839 261.200 C 112.557 260.100,112.170 259.200,111.979 259.200 C 111.788 259.200,111.416 258.480,111.153 257.600 C 110.889 256.720,110.539 256.000,110.376 256.000 C 110.212 256.000,109.890 255.460,109.660 254.800 C 109.430 254.140,109.052 253.600,108.821 253.600 C 108.589 253.600,108.400 253.375,108.400 253.100 C 108.399 252.825,107.955 252.060,107.413 251.400 C 105.182 248.684,104.182 247.616,103.863 247.608 C 103.678 247.604,103.069 247.240,102.509 246.800 C 100.927 245.555,99.065 245.757,97.423 247.351 M344.749 254.667 C 344.123 255.426,344.144 261.698,344.807 272.600 C 345.752 288.128,344.936 312.597,342.940 328.600 C 341.870 337.183,341.691 338.344,340.186 346.513 C 338.902 353.484,340.637 355.249,346.189 352.622 C 347.378 352.060,348.637 351.600,348.988 351.600 C 349.338 351.600,349.722 351.346,349.841 351.036 C 349.961 350.726,350.489 350.364,351.015 350.232 C 351.541 350.100,352.807 349.409,353.827 348.696 C 354.847 347.983,355.960 347.220,356.300 347.000 C 358.168 345.792,364.379 338.987,364.393 338.133 C 364.397 337.877,364.542 337.607,364.715 337.533 C 365.263 337.301,367.092 333.853,367.383 332.500 C 367.537 331.785,367.805 331.200,367.977 331.200 C 368.150 331.200,368.511 330.075,368.781 328.700 C 369.051 327.325,369.480 325.767,369.736 325.237 C 370.360 323.942,370.391 302.897,369.769 302.485 C 369.532 302.328,369.098 300.355,368.805 298.100 C 368.511 295.845,368.137 294.000,367.973 294.000 C 367.809 294.000,367.550 293.055,367.397 291.900 C 367.243 290.745,366.879 289.260,366.587 288.600 C 366.296 287.940,365.835 286.365,365.565 285.100 C 365.294 283.835,364.945 282.800,364.788 282.800 C 364.632 282.800,364.272 281.973,363.989 280.961 C 363.706 279.950,363.143 278.472,362.737 277.677 C 362.332 276.882,362.000 275.909,362.000 275.515 C 362.000 275.122,361.849 274.800,361.664 274.800 C 361.479 274.800,361.090 274.080,360.800 273.200 C 360.510 272.320,360.150 271.600,360.000 271.600 C 359.850 271.600,359.490 270.880,359.200 270.000 C 358.910 269.120,358.550 268.400,358.400 268.400 C 358.250 268.400,357.890 267.680,357.600 266.800 C 357.310 265.920,356.923 265.200,356.741 265.200 C 356.560 265.200,356.132 264.615,355.791 263.900 C 354.630 261.464,353.957 260.400,353.578 260.400 C 353.370 260.400,353.200 260.132,353.200 259.803 C 353.200 259.475,352.840 258.982,352.400 258.707 C 351.960 258.432,351.600 258.000,351.600 257.746 C 351.600 257.492,351.153 256.860,350.607 256.342 C 350.061 255.824,349.611 255.196,349.607 254.947 C 349.591 253.894,345.576 253.663,344.749 254.667 "
    fill="#000000" />
<path
    d="M200.274 176.388 C 195.293 177.348,192.850 183.388,195.719 187.646 C 199.774 193.663,209.200 190.834,209.200 183.600 C 209.200 178.748,205.122 175.454,200.274 176.388 M278.200 176.373 C 269.671 178.424,271.054 190.961,279.798 190.856 C 283.021 190.818,285.035 189.526,286.553 186.520 C 289.150 181.380,283.900 175.002,278.200 176.373 M240.000 201.489 C 236.776 202.701,220.802 209.401,220.149 209.815 C 218.232 211.030,218.650 214.071,220.917 215.399 C 221.623 215.812,225.547 218.342,229.637 221.021 C 242.662 229.552,241.112 229.261,248.436 224.548 C 266.020 213.233,265.190 213.934,264.292 211.144 C 263.917 209.979,263.442 209.736,253.400 205.577 C 242.139 200.913,241.803 200.811,240.000 201.489 "
    fill="#ffffff" />
</svg>