<svg xmlns="http://www.w3.org/2000/svg" width="40" height="40" fill="currentColor" class="catIcon" viewBox="0 0 400 394.1463414146">
    <path d="M285.297 1.463 C 236.869 10.761,152.065 27.689,151.123 28.245 C 149.069 29.459,148.835 30.810,147.918 46.746 C 147.457 54.773,147.001 63.471,146.905 66.075 C 146.810 68.679,145.398 93.403,143.767 121.018 C 140.937 168.958,140.833 171.291,141.466 172.626 C 143.121 176.112,143.389 176.093,166.130 170.848 C 187.626 165.890,187.128 165.932,188.945 168.911 C 190.092 170.793,190.243 169.821,184.186 199.446 C 178.292 228.276,178.210 228.883,179.987 230.660 C 182.027 232.699,182.734 232.607,196.162 228.561 C 209.481 224.548,209.839 224.480,211.711 225.621 C 214.790 227.499,215.181 224.656,205.154 273.232 C 196.241 316.403,196.116 317.100,196.983 318.663 C 199.080 322.441,203.734 321.765,206.402 317.295 C 210.243 310.861,315.976 98.827,315.976 97.560 C 315.976 94.838,313.947 92.702,311.361 92.702 C 310.753 92.702,301.412 94.398,290.602 96.470 C 267.674 100.866,267.658 100.866,266.522 96.163 C 266.286 95.190,274.564 64.994,275.743 62.525 C 275.950 62.091,277.904 55.523,280.085 47.929 C 282.266 40.335,285.727 28.318,287.777 21.223 C 292.154 6.070,292.210 5.790,291.213 3.975 C 290.036 1.833,287.961 0.951,285.297 1.463 " fill="#fbc923" />
    <path d="M14.793 44.321 C 10.604 46.275,8.156 50.801,9.004 55.022 C 9.317 56.582,13.439 64.136,26.141 86.427 C 35.339 102.571,76.736 175.247,118.134 247.929 C 159.532 320.611,193.955 380.671,194.630 381.396 C 198.201 385.225,204.461 385.571,208.379 382.155 C 209.515 381.164,215.379 370.975,233.863 337.870 C 247.067 314.221,287.429 241.972,323.556 177.318 C 359.683 112.663,389.636 58.986,390.118 58.036 C 393.476 51.421,388.679 43.294,381.488 43.416 C 380.713 43.430,356.577 47.734,327.853 52.983 L 275.627 62.525 270.958 78.698 C 263.930 103.044,262.599 101.839,290.602 96.470 C 301.412 94.398,310.753 92.702,311.361 92.702 C 313.947 92.702,315.976 94.838,315.976 97.560 C 315.976 98.827,210.243 310.861,206.402 317.295 C 203.734 321.765,199.080 322.441,196.983 318.663 C 196.116 317.100,196.241 316.403,205.154 273.232 C 215.181 224.656,214.790 227.499,211.711 225.621 C 209.839 224.480,209.481 224.548,196.162 228.561 C 182.734 232.607,182.027 232.699,179.987 230.660 C 178.210 228.883,178.292 228.276,184.186 199.446 C 190.243 169.821,190.092 170.793,188.945 168.911 C 187.128 165.932,187.626 165.890,166.130 170.848 C 143.389 176.093,143.121 176.112,141.466 172.626 C 140.833 171.291,140.937 168.946,143.767 120.821 C 145.398 93.097,146.779 69.442,146.837 68.254 L 146.943 66.094 119.921 61.261 C 105.059 58.603,81.893 54.459,68.442 52.053 C 12.504 42.048,17.973 42.836,14.793 44.321 " fill="#000000" />
</svg>